<?xml version="1.0" standalone="no"?>
<!DOCTYPE svg PUBLIC "-//W3C//DTD SVG 20010904//EN"
 "http://www.w3.org/TR/2001/REC-SVG-20010904/DTD/svg10.dtd">
<svg version="1.0" xmlns="http://www.w3.org/2000/svg"
 width="1172.000000pt" height="1156.000000pt" viewBox="0 0 1172.000000 1156.000000"
 preserveAspectRatio="xMidYMid meet">

<g transform="translate(0.000000,1156.000000) scale(0.100000,-0.100000)"
fill="#fff" stroke="none">
<path d="M8165 7099 c58 -56 126 -133 151 -171 115 -173 151 -349 101 -496
-78 -226 -246 -389 -574 -555 -196 -99 -367 -160 -624 -221 -438 -105 -713
-135 -1254 -135 -628 -1 -1096 51 -1609 180 -188 47 -560 171 -630 210 -13 7
-16 7 -11 0 3 -6 -2 -11 -12 -11 -15 0 -16 -2 -3 -10 8 -5 22 -7 31 -5 9 3 27
1 40 -4 13 -5 18 -10 10 -10 -21 -1 7 -31 29 -31 10 0 23 -7 31 -16 37 -45
445 -206 706 -279 145 -40 415 -100 542 -120 88 -14 102 -23 94 -59 -19 -81
-24 -93 -48 -104 -30 -14 -141 -16 -149 -4 -3 5 -20 7 -38 4 -34 -5 -211 -8
-263 -5 -16 2 -69 0 -116 -3 -55 -4 -94 -2 -107 5 -21 11 -21 11 -2 54 20 43
26 87 12 87 -4 0 -15 -16 -24 -35 -8 -19 -11 -32 -6 -29 6 4 -10 -14 -34 -40
l-45 -46 -119 0 c-177 0 -168 -5 -160 104 4 50 9 114 12 141 l5 50 -25 -31
c-23 -27 -140 -226 -306 -519 -31 -55 -77 -135 -103 -177 -26 -42 -47 -79 -47
-82 0 -3 898 -6 1996 -6 l1996 0 -7 27 c-7 28 -165 479 -206 590 -16 42 -21
65 -14 72 6 6 67 25 135 41 452 112 828 291 1025 488 129 129 187 234 208 380
35 233 -123 491 -438 717 -75 54 -239 155 -251 155 -3 0 42 -46 101 -101z
m-2730 -1733 c14 -10 17 -21 12 -50 -9 -54 -22 -66 -77 -66 -65 0 -76 15 -51
73 11 24 25 47 33 50 25 10 64 7 83 -7z m1639 -18 c23 -32 21 -85 -3 -98 -44
-23 -125 -1 -146 40 -31 59 -11 78 82 79 43 1 55 -3 67 -21z m-1380 -8 c33
-12 37 -64 7 -80 -22 -11 -71 -13 -95 -4 -16 6 -22 50 -8 70 15 23 57 29 96
14z m1049 -9 c28 -11 40 -35 32 -62 -9 -27 -74 -26 -103 1 -28 27 -28 48 1 60
29 12 41 12 70 1z m-762 -11 c21 -12 25 -40 7 -58 -7 -7 -30 -12 -53 -12 -43
0 -65 13 -65 40 0 9 5 21 12 28 15 15 72 16 99 2z m261 -14 c27 -41 -25 -80
-68 -51 -13 8 -24 25 -24 36 0 35 71 47 92 15z m262 8 c9 -8 16 -22 16 -29 0
-19 -28 -45 -50 -45 -26 0 -52 43 -37 63 11 13 31 24 49 26 4 1 14 -6 22 -15z
m-2230 -200 c16 -6 21 -39 10 -68 -5 -13 -25 -16 -120 -16 -124 0 -133 4 -120
55 6 23 10 24 104 28 53 1 100 4 104 5 3 1 13 -1 22 -4z m290 0 c23 -9 21 -61
-3 -74 -28 -14 -136 -13 -148 3 -5 6 -7 23 -4 37 6 22 13 26 66 31 33 3 63 6
67 7 3 1 13 -1 22 -4z m255 -4 c15 -7 17 -16 12 -42 l-7 -33 -83 -3 c-46 -2
-88 1 -92 5 -5 5 -5 22 -1 38 8 27 13 31 58 36 80 10 94 9 113 -1z m256 -35
l0 -40 -75 0 -75 0 -3 30 c-5 42 20 56 93 53 l60 -3 0 -40z m270 35 c23 -9 26
-14 20 -38 -9 -36 -21 -43 -80 -40 -46 3 -50 5 -53 30 -6 46 52 71 113 48z
m283 1 c8 -5 12 -22 10 -42 -3 -33 -4 -34 -53 -37 -61 -3 -80 7 -72 40 10 38
80 62 115 39z m292 -11 c4 -6 5 -22 2 -36 -5 -28 -30 -37 -88 -32 -34 3 -39 7
-42 30 -4 37 31 61 82 54 21 -2 42 -10 46 -16z m264 14 c10 -4 16 -18 16 -39
0 -37 -12 -45 -70 -45 -43 0 -65 19 -55 50 10 32 68 50 109 34z m384 -10 c16
-11 22 -24 20 -42 -3 -25 -7 -27 -48 -27 -37 0 -46 4 -59 27 -13 22 -13 29 -2
42 17 21 60 20 89 0z m274 -6 c4 -7 8 -25 8 -40 0 -26 -3 -28 -45 -28 -34 0
-47 5 -55 19 -14 27 -13 58 3 65 20 9 80 -2 89 -16z m271 15 c42 -6 72 -39 61
-67 -5 -13 -21 -16 -78 -16 -43 0 -77 5 -84 12 -13 13 -16 60 -5 71 8 9 56 9
106 0z"/>
<path d="M3952 4073 c-12 -2 -41 -21 -62 -42 -55 -52 -55 -94 -2 -151 33 -34
45 -40 81 -40 76 0 151 51 151 102 0 75 -91 146 -168 131z"/>
<path d="M6525 4011 c-160 -47 -234 -127 -243 -266 -4 -58 0 -80 18 -123 31
-71 119 -151 218 -198 163 -76 183 -87 207 -116 32 -38 32 -69 -1 -107 -66
-78 -244 -73 -386 11 -27 15 -48 24 -49 20 0 -4 0 -47 1 -97 1 -70 5 -96 19
-115 54 -74 345 -99 477 -41 55 25 159 122 187 176 32 61 29 166 -7 238 -38
78 -91 121 -234 189 -145 68 -177 89 -197 128 -31 61 21 118 122 134 56 8 173
-9 234 -35 27 -12 51 -20 52 -18 2 2 1 49 -2 104 l-6 100 -65 17 c-89 23 -265
22 -345 -1z"/>
<path d="M1318 4013 l-38 -4 0 -515 0 -514 118 0 117 0 -3 177 c-4 227 -4 227
53 221 24 -3 57 -15 73 -27 29 -20 106 -133 208 -304 l47 -78 126 3 c151 4
153 6 87 99 -25 35 -81 116 -125 179 -44 63 -96 132 -116 153 -19 21 -35 43
-35 48 0 5 19 18 43 28 55 24 117 94 140 157 52 145 -20 309 -153 348 -94 28
-396 44 -542 29z m400 -193 c41 -15 62 -55 62 -117 0 -58 -24 -98 -77 -130
-48 -29 -177 -34 -187 -7 -8 21 -7 222 1 253 6 23 8 23 87 18 45 -3 96 -11
114 -17z"/>
<path d="M2465 3727 c-27 -8 -63 -21 -80 -29 -45 -24 -124 -107 -150 -158 -55
-107 -59 -283 -10 -380 35 -68 121 -155 182 -182 66 -30 223 -37 313 -14 98
25 116 50 123 161 2 45 3 45 -83 21 -70 -20 -200 -21 -243 -2 -64 29 -121 106
-97 130 7 7 90 12 252 13 133 2 244 5 247 8 2 3 0 49 -7 102 -8 72 -19 113
-42 159 -35 72 -109 144 -166 162 -58 19 -182 23 -239 9z m142 -158 c15 -6 38
-20 51 -31 26 -25 46 -88 32 -102 -12 -12 -171 -20 -227 -11 -37 5 -43 10 -43
30 0 30 42 80 89 105 42 22 59 24 98 9z"/>
<path d="M4544 3730 c-72 -15 -113 -38 -173 -95 -39 -37 -68 -77 -87 -118 -27
-57 -29 -72 -29 -177 0 -104 3 -121 27 -172 35 -75 107 -151 175 -185 81 -39
229 -45 336 -13 42 13 83 30 92 40 20 22 33 144 16 154 -6 4 -37 -3 -70 -14
-49 -18 -76 -21 -161 -18 l-101 3 -39 42 c-44 46 -60 90 -39 103 7 5 114 9
237 9 123 1 228 4 233 7 25 15 -4 205 -42 278 -30 59 -85 112 -140 135 -55 24
-173 35 -235 21z m167 -188 c41 -42 58 -87 40 -105 -17 -17 -246 -16 -262 0
-25 25 40 113 101 136 44 17 83 7 121 -31z"/>
<path d="M7445 3733 c-129 -17 -258 -109 -306 -217 -46 -105 -46 -255 2 -352
23 -49 141 -163 193 -188 78 -37 233 -40 321 -6 56 21 65 37 64 106 -1 34 1
66 4 71 3 5 3 14 -1 20 -5 8 -24 6 -67 -9 -69 -23 -159 -25 -208 -5 -65 28
-108 105 -109 197 -2 157 139 246 308 195 76 -23 74 -24 74 63 0 47 -5 85 -12
95 -21 28 -159 44 -263 30z"/>
<path d="M8139 3730 c-200 -34 -319 -195 -307 -416 8 -146 87 -263 227 -331
107 -53 287 -40 392 28 66 42 126 110 157 177 23 50 26 70 26 162 1 99 -1 109
-33 174 -59 121 -143 185 -273 206 -71 11 -122 11 -189 0z m181 -192 c60 -41
73 -69 78 -162 7 -125 -20 -186 -99 -226 -123 -64 -239 31 -239 195 0 89 24
143 81 184 54 40 128 43 179 9z"/>
<path d="M9187 3727 c-20 -6 -67 -34 -102 -60 -82 -61 -95 -56 -69 31 6 22 6
22 -110 22 l-116 0 0 -540 0 -540 114 0 114 0 -5 210 c-3 116 -3 210 2 210 4
0 23 -14 43 -31 20 -18 60 -43 90 -57 124 -56 267 6 366 160 43 69 55 118 56
228 0 167 -59 294 -160 345 -59 30 -167 41 -223 22z m73 -190 c57 -38 75 -80
74 -172 -2 -160 -84 -255 -195 -225 -85 23 -129 96 -129 211 0 70 40 153 89
186 46 31 116 31 161 0z"/>
<path d="M9948 3727 c-97 -28 -181 -103 -231 -207 -30 -61 -32 -71 -32 -180 0
-104 3 -121 27 -172 35 -76 107 -151 177 -185 52 -26 64 -28 181 -28 106 1
134 4 183 24 37 15 61 31 66 44 13 35 22 135 13 141 -5 3 -33 -4 -63 -15 -74
-28 -250 -25 -291 6 -28 21 -78 92 -78 111 0 8 70 13 242 18 133 4 246 10 250
12 11 7 10 120 -2 172 -25 107 -90 196 -175 237 -66 33 -192 43 -267 22z m203
-196 c34 -38 54 -87 40 -95 -14 -9 -213 -17 -251 -11 -36 6 -40 9 -34 28 10
34 53 87 88 108 23 15 43 19 76 16 37 -4 51 -12 81 -46z"/>
<path d="M2960 3713 c0 -11 77 -227 238 -670 l26 -72 124 1 125 1 30 66 c30
67 132 335 213 559 l44 122 -120 0 -119 0 -11 -42 c-6 -24 -29 -101 -50 -173
-21 -71 -51 -176 -66 -233 -16 -56 -33 -101 -39 -99 -5 2 -13 23 -18 48 -8 39
-65 249 -118 432 l-20 67 -119 0 c-66 0 -120 -3 -120 -7z"/>
<path d="M3872 3348 l3 -373 108 -3 c59 -1 107 -1 107 0 8 88 11 367 5 531
l-7 217 -109 0 -109 0 2 -372z"/>
<path d="M5030 3711 c0 -5 15 -63 34 -128 19 -65 55 -197 81 -293 51 -191 88
-308 101 -319 5 -4 56 -6 115 -3 l105 4 28 92 c32 103 90 315 101 364 9 43 22
41 33 -5 50 -212 107 -434 113 -444 4 -7 23 -11 46 -10 21 2 69 4 106 5 l68 1
35 85 c19 47 46 121 60 165 22 68 134 480 134 491 0 2 -46 4 -103 4 l-104 0
-21 -92 c-11 -51 -35 -168 -52 -259 -29 -151 -43 -201 -53 -189 -2 3 -16 70
-31 150 -16 80 -39 190 -52 245 -13 55 -26 110 -29 123 -5 22 -8 23 -117 20
l-111 -3 -23 -85 c-13 -47 -40 -147 -60 -224 -44 -168 -62 -215 -75 -195 -5 8
-9 24 -9 37 0 23 -49 283 -76 405 l-16 67 -114 0 c-63 0 -114 -4 -114 -9z"/>
</g>
</svg>
